<mxfile host="app.diagrams.net" modified="2024-03-02T15:02:05.411Z" agent="Mozilla/5.0 (Macintosh; Intel Mac OS X 10.15; rv:123.0) Gecko/20100101 Firefox/123.0" etag="GxCR8KhOgyLNq21H9psi" version="24.0.0" type="github">
  <diagram name="Page-1" id="oiOR5DFxFL_I0Y_yu_aG">
    <mxGraphModel dx="1434" dy="822" grid="1" gridSize="10" guides="1" tooltips="1" connect="1" arrows="1" fold="1" page="1" pageScale="1" pageWidth="850" pageHeight="1100" math="0" shadow="0">
      <root>
        <mxCell id="0" />
        <mxCell id="1" parent="0" />
        <mxCell id="j7-mjfQlk6cvLGT77Xdr-10" value="Subnet:ACL" style="shape=mxgraph.ibm.box;prType=subnet;fontStyle=0;verticalAlign=top;align=left;spacingLeft=32;spacingTop=4;fillColor=#E6F0E2;rounded=0;whiteSpace=wrap;html=1;strokeColor=#00882B;strokeWidth=1;dashed=0;container=1;spacing=-4;collapsible=0;expand=0;recursiveResize=0;" parent="1" vertex="1">
          <mxGeometry x="290" y="320" width="350" height="150" as="geometry" />
        </mxCell>
        <mxCell id="j7-mjfQlk6cvLGT77Xdr-1" value="" style="strokeColor=#dddddd;shadow=1;strokeWidth=1;rounded=1;absoluteArcSize=1;arcSize=2;" parent="1" vertex="1">
          <mxGeometry x="380" y="800" width="80" height="50" as="geometry" />
        </mxCell>
        <mxCell id="j7-mjfQlk6cvLGT77Xdr-2" value="CDN and WAF" style="sketch=0;dashed=0;connectable=0;html=1;fillColor=#5184F3;strokeColor=none;shape=mxgraph.gcp2.fastly;part=1;labelPosition=right;verticalLabelPosition=middle;align=left;verticalAlign=middle;spacingLeft=5;fontColor=#999999;fontSize=12;" parent="j7-mjfQlk6cvLGT77Xdr-1" vertex="1">
          <mxGeometry width="45" height="17.55" relative="1" as="geometry">
            <mxPoint x="5" y="20.725" as="offset" />
          </mxGeometry>
        </mxCell>
        <mxCell id="k5Yn_Lyv47xPK6Ujf8SP-10" style="edgeStyle=orthogonalEdgeStyle;rounded=0;orthogonalLoop=1;jettySize=auto;html=1;entryX=0.5;entryY=0;entryDx=0;entryDy=0;" edge="1" parent="1" source="j7-mjfQlk6cvLGT77Xdr-3" target="k5Yn_Lyv47xPK6Ujf8SP-8">
          <mxGeometry relative="1" as="geometry" />
        </mxCell>
        <mxCell id="j7-mjfQlk6cvLGT77Xdr-3" value="" style="sketch=0;points=[[0,0,0],[0.25,0,0],[0.5,0,0],[0.75,0,0],[1,0,0],[0,1,0],[0.25,1,0],[0.5,1,0],[0.75,1,0],[1,1,0],[0,0.25,0],[0,0.5,0],[0,0.75,0],[1,0.25,0],[1,0.5,0],[1,0.75,0]];outlineConnect=0;fontColor=#232F3E;fillColor=#E7157B;strokeColor=#ffffff;dashed=0;verticalLabelPosition=bottom;verticalAlign=top;align=center;html=1;fontSize=12;fontStyle=0;aspect=fixed;shape=mxgraph.aws4.resourceIcon;resIcon=mxgraph.aws4.api_gateway;" parent="1" vertex="1">
          <mxGeometry x="730" y="350" width="50" height="50" as="geometry" />
        </mxCell>
        <mxCell id="j7-mjfQlk6cvLGT77Xdr-9" value="Private subnet" style="points=[[0,0],[0.25,0],[0.5,0],[0.75,0],[1,0],[1,0.25],[1,0.5],[1,0.75],[1,1],[0.75,1],[0.5,1],[0.25,1],[0,1],[0,0.75],[0,0.5],[0,0.25]];outlineConnect=0;gradientColor=none;html=1;whiteSpace=wrap;fontSize=12;fontStyle=0;container=1;pointerEvents=0;collapsible=0;recursiveResize=0;shape=mxgraph.aws4.group;grIcon=mxgraph.aws4.group_security_group;grStroke=0;strokeColor=#00A4A6;fillColor=#E6F6F7;verticalAlign=top;align=left;spacingLeft=30;fontColor=#147EBA;dashed=0;" parent="1" vertex="1">
          <mxGeometry x="300" y="470" width="330" height="205" as="geometry" />
        </mxCell>
        <mxCell id="j7-mjfQlk6cvLGT77Xdr-8" value="" style="sketch=0;outlineConnect=0;gradientColor=none;html=1;whiteSpace=wrap;fontSize=12;fontStyle=0;shape=mxgraph.aws4.group;grIcon=mxgraph.aws4.group_vpc;strokeColor=#879196;fillColor=none;verticalAlign=top;align=left;spacingLeft=30;fontColor=#879196;dashed=0;" parent="j7-mjfQlk6cvLGT77Xdr-9" vertex="1">
          <mxGeometry x="-30" y="-175" width="360" height="380" as="geometry" />
        </mxCell>
        <mxCell id="j7-mjfQlk6cvLGT77Xdr-12" style="edgeStyle=orthogonalEdgeStyle;rounded=0;orthogonalLoop=1;jettySize=auto;html=1;" parent="j7-mjfQlk6cvLGT77Xdr-9" source="j7-mjfQlk6cvLGT77Xdr-11" edge="1">
          <mxGeometry relative="1" as="geometry">
            <mxPoint x="430" y="-95" as="targetPoint" />
          </mxGeometry>
        </mxCell>
        <mxCell id="j7-mjfQlk6cvLGT77Xdr-11" value="Interface for APIGW" style="sketch=0;outlineConnect=0;fontColor=#232F3E;gradientColor=none;fillColor=#8C4FFF;strokeColor=none;dashed=0;verticalLabelPosition=bottom;verticalAlign=top;align=center;html=1;fontSize=12;fontStyle=0;aspect=fixed;pointerEvents=1;shape=mxgraph.aws4.endpoints;" parent="j7-mjfQlk6cvLGT77Xdr-9" vertex="1">
          <mxGeometry x="220" y="-120" width="50" height="50" as="geometry" />
        </mxCell>
        <mxCell id="j7-mjfQlk6cvLGT77Xdr-14" value="" style="sketch=0;outlineConnect=0;fontColor=#232F3E;gradientColor=none;fillColor=#8C4FFF;strokeColor=none;dashed=0;verticalLabelPosition=bottom;verticalAlign=top;align=center;html=1;fontSize=12;fontStyle=0;aspect=fixed;pointerEvents=1;shape=mxgraph.aws4.internet_gateway;" parent="j7-mjfQlk6cvLGT77Xdr-9" vertex="1">
          <mxGeometry x="126" y="-190" width="60" height="60" as="geometry" />
        </mxCell>
        <mxCell id="j7-mjfQlk6cvLGT77Xdr-21" value="SG" style="rounded=1;whiteSpace=wrap;html=1;" parent="j7-mjfQlk6cvLGT77Xdr-9" vertex="1">
          <mxGeometry x="220" y="-50" width="50" height="20" as="geometry" />
        </mxCell>
        <mxCell id="k5Yn_Lyv47xPK6Ujf8SP-1" value="" style="sketch=0;outlineConnect=0;fontColor=#232F3E;gradientColor=none;fillColor=#8C4FFF;strokeColor=none;dashed=0;verticalLabelPosition=bottom;verticalAlign=top;align=center;html=1;fontSize=12;fontStyle=0;aspect=fixed;pointerEvents=1;shape=mxgraph.aws4.application_load_balancer;" vertex="1" parent="j7-mjfQlk6cvLGT77Xdr-9">
          <mxGeometry x="260" y="40" width="40" height="40" as="geometry" />
        </mxCell>
        <mxCell id="j7-mjfQlk6cvLGT77Xdr-18" style="edgeStyle=orthogonalEdgeStyle;rounded=0;orthogonalLoop=1;jettySize=auto;html=1;" parent="1" source="j7-mjfQlk6cvLGT77Xdr-15" target="j7-mjfQlk6cvLGT77Xdr-8" edge="1">
          <mxGeometry relative="1" as="geometry" />
        </mxCell>
        <mxCell id="j7-mjfQlk6cvLGT77Xdr-15" value="Postman/" style="aspect=fixed;sketch=0;html=1;dashed=0;whitespace=wrap;fillColor=#2875E2;strokeColor=#ffffff;points=[[0.005,0.63,0],[0.1,0.2,0],[0.9,0.2,0],[0.5,0,0],[0.995,0.63,0],[0.72,0.99,0],[0.5,1,0],[0.28,0.99,0]];shape=mxgraph.kubernetes.icon2;kubernetesLabel=1;prIcon=api" parent="1" vertex="1">
          <mxGeometry x="720" y="140" width="41.67" height="40" as="geometry" />
        </mxCell>
        <mxCell id="k5Yn_Lyv47xPK6Ujf8SP-12" style="edgeStyle=orthogonalEdgeStyle;rounded=0;orthogonalLoop=1;jettySize=auto;html=1;" edge="1" parent="1" source="j7-mjfQlk6cvLGT77Xdr-16" target="j7-mjfQlk6cvLGT77Xdr-22">
          <mxGeometry relative="1" as="geometry" />
        </mxCell>
        <mxCell id="j7-mjfQlk6cvLGT77Xdr-16" value="Postman API/external" style="text;html=1;align=center;verticalAlign=middle;whiteSpace=wrap;rounded=0;" parent="1" vertex="1">
          <mxGeometry x="710.84" y="180" width="60" height="30" as="geometry" />
        </mxCell>
        <mxCell id="j7-mjfQlk6cvLGT77Xdr-20" style="edgeStyle=orthogonalEdgeStyle;rounded=0;orthogonalLoop=1;jettySize=auto;html=1;" parent="1" source="j7-mjfQlk6cvLGT77Xdr-17" target="j7-mjfQlk6cvLGT77Xdr-11" edge="1">
          <mxGeometry relative="1" as="geometry">
            <Array as="points">
              <mxPoint x="490" y="385" />
              <mxPoint x="490" y="385" />
            </Array>
          </mxGeometry>
        </mxCell>
        <mxCell id="j7-mjfQlk6cvLGT77Xdr-17" value="" style="image;aspect=fixed;html=1;points=[];align=center;fontSize=12;image=img/lib/azure2/networking/DNS_Zones.svg;" parent="1" vertex="1">
          <mxGeometry x="350" y="370" width="30" height="30" as="geometry" />
        </mxCell>
        <mxCell id="j7-mjfQlk6cvLGT77Xdr-19" style="edgeStyle=orthogonalEdgeStyle;rounded=0;orthogonalLoop=1;jettySize=auto;html=1;" parent="1" source="j7-mjfQlk6cvLGT77Xdr-14" target="j7-mjfQlk6cvLGT77Xdr-17" edge="1">
          <mxGeometry relative="1" as="geometry" />
        </mxCell>
        <mxCell id="k5Yn_Lyv47xPK6Ujf8SP-2" style="edgeStyle=orthogonalEdgeStyle;rounded=0;orthogonalLoop=1;jettySize=auto;html=1;" edge="1" parent="1" source="k5Yn_Lyv47xPK6Ujf8SP-3" target="k5Yn_Lyv47xPK6Ujf8SP-1">
          <mxGeometry relative="1" as="geometry">
            <Array as="points">
              <mxPoint x="680" y="420" />
              <mxPoint x="680" y="530" />
            </Array>
          </mxGeometry>
        </mxCell>
        <mxCell id="j7-mjfQlk6cvLGT77Xdr-22" value="Resource Policy/VPC/Account only" style="rounded=1;whiteSpace=wrap;html=1;" parent="1" vertex="1">
          <mxGeometry x="670" y="300" width="50" height="20" as="geometry" />
        </mxCell>
        <mxCell id="j7-mjfQlk6cvLGT77Xdr-25" style="edgeStyle=orthogonalEdgeStyle;rounded=0;orthogonalLoop=1;jettySize=auto;html=1;" parent="1" source="j7-mjfQlk6cvLGT77Xdr-23" target="j7-mjfQlk6cvLGT77Xdr-24" edge="1">
          <mxGeometry relative="1" as="geometry">
            <Array as="points">
              <mxPoint x="420" y="660" />
              <mxPoint x="420" y="660" />
            </Array>
          </mxGeometry>
        </mxCell>
        <mxCell id="j7-mjfQlk6cvLGT77Xdr-23" value="ONprem" style="sketch=0;pointerEvents=1;shadow=0;dashed=0;html=1;strokeColor=none;fillColor=#505050;labelPosition=center;verticalLabelPosition=bottom;verticalAlign=top;outlineConnect=0;align=center;shape=mxgraph.office.users.on_premises_user;" parent="1" vertex="1">
          <mxGeometry x="401" y="720" width="49" height="59" as="geometry" />
        </mxCell>
        <mxCell id="j7-mjfQlk6cvLGT77Xdr-24" value="Route53resolverendpoint" style="sketch=0;outlineConnect=0;fontColor=#232F3E;gradientColor=none;fillColor=#8C4FFF;strokeColor=none;dashed=0;verticalLabelPosition=bottom;verticalAlign=top;align=center;html=1;fontSize=12;fontStyle=0;aspect=fixed;pointerEvents=1;shape=mxgraph.aws4.route_53_resolver;" parent="1" vertex="1">
          <mxGeometry x="400" y="400" width="40" height="40" as="geometry" />
        </mxCell>
        <mxCell id="j7-mjfQlk6cvLGT77Xdr-26" value="DirectConnect" style="text;html=1;align=center;verticalAlign=middle;resizable=0;points=[];autosize=1;strokeColor=none;fillColor=none;" parent="1" vertex="1">
          <mxGeometry x="390" y="678" width="100" height="30" as="geometry" />
        </mxCell>
        <mxCell id="k5Yn_Lyv47xPK6Ujf8SP-3" value="WAF to restrict access to API with header check" style="sketch=0;points=[[0,0,0],[0.25,0,0],[0.5,0,0],[0.75,0,0],[1,0,0],[0,1,0],[0.25,1,0],[0.5,1,0],[0.75,1,0],[1,1,0],[0,0.25,0],[0,0.5,0],[0,0.75,0],[1,0.25,0],[1,0.5,0],[1,0.75,0]];outlineConnect=0;fontColor=#232F3E;fillColor=#DD344C;strokeColor=#ffffff;dashed=0;verticalLabelPosition=bottom;verticalAlign=top;align=center;html=1;fontSize=12;fontStyle=0;aspect=fixed;shape=mxgraph.aws4.resourceIcon;resIcon=mxgraph.aws4.waf;" vertex="1" parent="1">
          <mxGeometry x="640" y="510" width="40" height="40" as="geometry" />
        </mxCell>
        <mxCell id="k5Yn_Lyv47xPK6Ujf8SP-11" value="" style="edgeStyle=orthogonalEdgeStyle;rounded=0;orthogonalLoop=1;jettySize=auto;html=1;" edge="1" parent="1" source="k5Yn_Lyv47xPK6Ujf8SP-8" target="k5Yn_Lyv47xPK6Ujf8SP-3">
          <mxGeometry relative="1" as="geometry" />
        </mxCell>
        <mxCell id="k5Yn_Lyv47xPK6Ujf8SP-8" value="WIth Integration request header" style="rounded=1;whiteSpace=wrap;html=1;" vertex="1" parent="1">
          <mxGeometry x="640" y="440" width="94" height="40" as="geometry" />
        </mxCell>
        <mxCell id="k5Yn_Lyv47xPK6Ujf8SP-9" value="" style="shape=mxgraph.mockup.markup.redX;fillColor=#ff0000;html=1;shadow=0;whiteSpace=wrap;strokeColor=none;" vertex="1" parent="1">
          <mxGeometry x="660" y="330" width="70" height="40" as="geometry" />
        </mxCell>
      </root>
    </mxGraphModel>
  </diagram>
</mxfile>
